<svg width="1000" height="97" viewBox="0 0 1000 97" fill="none" xmlns="http://www.w3.org/2000/svg">
<path d="M21.476 94.7673V57.4244H66.3948V94.7673H87.7652V1.60156H66.3948V37.4396H21.476V1.60156H0V94.7673H21.476Z" fill="#535353"/>
<path d="M134.173 96.73C160.137 96.73 176.571 81.9063 176.571 60.7731V60.6543C176.571 39.6267 160.137 24.9219 134.173 24.9219C108.209 24.9219 91.8945 39.6267 91.8945 60.6543V60.7731C91.8945 81.9063 108.328 96.73 134.173 96.73ZM134.173 77.4315C121.66 77.4315 113.608 70.3035 113.608 60.7731V60.5355C113.608 50.8863 121.541 44.2335 134.173 44.2335C146.924 44.2335 154.857 50.8863 154.857 60.5355V60.7731C154.857 70.3035 146.819 77.4315 134.173 77.4315Z" fill="#535353"/>
<path d="M202.293 94.7715V48.3602C204.59 47.8982 211.942 47.6738 215.044 47.6738H231.583V27.6758H217.922C210.794 27.6758 193.33 28.2566 180.698 30.2102V94.7715H202.293Z" fill="#535353"/>
<path d="M257.092 94.7764V45.6063C261.343 44.8011 267.085 44.2335 271.916 44.2335C281.789 44.2335 286.963 46.9791 286.963 56.1795V94.7764H308.558V53.0775C308.558 31.5879 295.926 24.9219 272.483 24.9219C262.729 24.9219 247.219 26.8755 235.498 29.0667V94.7764H257.092Z" fill="#535353"/>
<path d="M391.156 63.9791C391.156 38.1335 375.184 25.0391 352.217 25.0391C328.206 25.0391 312.802 39.8627 312.802 60.6527V60.8903C312.802 82.7099 329.46 96.6095 354.276 96.6095C368.756 96.6095 380.939 92.3591 388.173 88.2275L378.748 71.5691C372.544 75.0143 364.162 77.8919 354.975 77.8919C344.059 77.8919 337.275 72.7175 335.215 65.2463H391.156V63.9791ZM352.098 42.0407C361.179 42.0407 367.489 46.6343 369.324 53.4191H335.44C337.737 46.2911 343.94 42.0407 352.098 42.0407Z" fill="#535353"/>
<path d="M456.402 94.7826V74.6789H436.985C430.214 74.6789 427.217 72.6065 427.217 66.4025V47.7905H456.402V27.8057H427.217V8.16406H405.504V27.8057H391.723V47.7905H405.504V73.2929C405.504 88.6974 412.17 94.7826 427.112 94.7826H456.402Z" fill="#535353"/>
<path d="M515.446 96.2677C541.753 96.2677 556.92 86.4997 556.92 68.4685V68.2441C556.92 51.6913 547.733 44.4577 518.904 37.5672C503.843 33.8844 499.487 31.5876 499.487 26.8752V26.7696C499.487 22.1628 504.767 19.5228 516.251 19.5228C526.705 19.5228 538.889 22.0572 546.36 26.4264L555.309 8.60641C546.241 3.4452 531.418 0 516.832 0C491.898 0 477.774 10.1112 477.774 26.994V27.2184C477.774 43.9957 487.647 51.4669 510.971 56.8657C528.896 61.1161 534.982 63.2941 534.982 68.3497V68.5873C534.982 74.3293 527.286 76.7449 514.416 76.7449C502.589 76.7449 491.211 74.4481 482.829 69.8413L473.867 87.8857C483.173 93.0469 498.682 96.2677 515.446 96.2677Z" fill="#535353"/>
<path d="M602.063 96.73C628.027 96.73 644.461 81.9063 644.461 60.7731V60.6543C644.461 39.6267 628.027 24.9219 602.063 24.9219C576.1 24.9219 559.785 39.6267 559.785 60.6543V60.7731C559.785 81.9063 576.218 96.73 602.063 96.73ZM602.063 77.4315C589.55 77.4315 581.498 70.3035 581.498 60.7731V60.5355C581.498 50.8863 589.431 44.2335 602.063 44.2335C614.814 44.2335 622.747 50.8863 622.747 60.5355V60.7731C622.747 70.3035 614.709 77.4315 602.063 77.4315Z" fill="#535353"/>
<path d="M680.417 94.7673V47.6696H709.588V27.9092H680.417V23.7644C680.417 19.4084 683.176 16.7552 689.485 16.7552H709.707V1.60156H687.188C669.039 1.60156 658.809 8.25437 658.809 22.7348V27.9092H645.028V47.6696H658.809V94.7673H680.417Z" fill="#535353"/>
<path d="M774.727 94.7826V74.6789H755.31C748.538 74.6789 745.542 72.6065 745.542 66.4025V47.7905H774.727V27.8057H745.542V8.16406H723.828V27.8057H710.048V47.7905H723.828V73.2929C723.828 88.6974 730.494 94.7826 745.436 94.7826H774.727Z" fill="#535353"/>
<path d="M856.058 63.9791C856.058 38.1335 840.086 25.0391 817.119 25.0391C793.108 25.0391 777.704 39.8627 777.704 60.6527V60.8903C777.704 82.7099 794.362 96.6095 819.178 96.6095C833.658 96.6095 845.841 92.3591 853.075 88.2275L843.65 71.5691C837.446 75.0143 829.064 77.8919 819.877 77.8919C808.961 77.8919 802.176 72.7175 800.117 65.2463H856.058V63.9791ZM817 42.0407C826.081 42.0407 832.391 46.6343 834.225 53.4191H800.342C802.638 46.2911 808.842 42.0407 817 42.0407Z" fill="#535353"/>
<path d="M881.789 94.7764V45.6063C886.039 44.8011 891.781 44.2335 896.612 44.2335C906.486 44.2335 911.66 46.9791 911.66 56.1795V94.7764H933.255V53.0775C933.255 31.5879 920.623 24.9219 897.18 24.9219C887.425 24.9219 871.916 26.8755 860.194 29.0667V94.7764H881.789Z" fill="#535353"/>
<path d="M1000 94.7826V74.6789H980.583C973.812 74.6789 970.815 72.6065 970.815 66.4025V47.7905H1000V27.8057H970.815V8.16406H949.102V27.8057H935.321V47.7905H949.102V73.2929C949.102 88.6974 955.768 94.7826 970.71 94.7826H1000Z" fill="#535353"/>
</svg>
